<svg width="1128" height="350" viewBox="0 0 1128 350" fill="none" xmlns="http://www.w3.org/2000/svg">
<path d="M356.567 159.126C353.553 150.948 344.524 146.785 336.398 149.814L325.021 154.045L304.096 161.837C304.096 161.837 304.029 161.871 304.006 161.882C297.945 164.117 293.6 169.97 293.6 176.843C293.6 177.138 293.6 177.445 293.634 177.74V194.799C293.634 205.665 284.876 214.467 274.063 214.467H222.835C214.799 214.467 207.429 221.023 206.864 229.077C206.21 238.31 213.467 246 222.507 246H290.406C291.489 246 292.562 245.943 293.623 245.853C310.168 244.321 323.328 231.096 324.852 214.467C324.954 213.401 324.999 212.335 324.999 211.235V187.687L347.267 179.396C355.393 176.367 359.535 167.293 356.533 159.137L356.567 159.126Z" fill="url(#paint0_radial_58717_15832)"/>
<path d="M356.567 159.126C353.553 150.948 344.524 146.785 336.398 149.814L325.021 154.045L304.096 161.837C304.096 161.837 304.029 161.871 304.006 161.882C297.945 164.117 293.6 169.97 293.6 176.843C293.6 177.138 293.6 177.445 293.634 177.74V194.799C293.634 205.665 284.876 214.467 274.063 214.467H222.835C214.799 214.467 207.429 221.023 206.864 229.077C206.21 238.31 213.467 246 222.507 246H290.406C291.489 246 292.562 245.943 293.623 245.853C310.168 244.321 323.328 231.096 324.852 214.467C324.954 213.401 324.999 212.335 324.999 211.235V187.687L347.267 179.396C355.393 176.367 359.535 167.293 356.533 159.137L356.567 159.126Z" fill="url(#paint1_radial_58717_15832)" fill-opacity="0.2"/>
<path d="M206.843 155.201C206.843 144.346 215.601 135.544 226.402 135.544H277.631C285.904 135.544 292.992 129.249 293.601 120.957C294.278 111.713 286.999 104 277.947 104H210.048C208.965 104 207.893 104.057 206.843 104.147C190.297 105.667 177.126 118.916 175.602 135.544C175.501 136.61 175.456 137.677 175.456 138.766V176.9L153.402 185.112L153.436 185.203C147.059 187.562 142.59 193.937 143.086 201.275C143.684 210.043 151.495 216.747 160.208 216.01C160.501 215.987 160.783 215.953 161.077 215.907L167.431 213.537L175.456 210.554L196.595 202.682C202.927 200.323 206.832 194.3 206.832 187.891V155.212L206.843 155.201Z" fill="url(#paint2_radial_58717_15832)"/>
<path d="M206.843 155.201C206.843 144.346 215.601 135.544 226.402 135.544H277.631C285.904 135.544 292.992 129.249 293.601 120.957C294.278 111.713 286.999 104 277.947 104H210.048C208.965 104 207.893 104.057 206.843 104.147C190.297 105.667 177.126 118.916 175.602 135.544C175.501 136.61 175.456 137.677 175.456 138.766V176.9L153.402 185.112L153.436 185.203C147.059 187.562 142.59 193.937 143.086 201.275C143.684 210.043 151.495 216.747 160.208 216.01C160.501 215.987 160.783 215.953 161.077 215.907L167.431 213.537L175.456 210.554L196.595 202.682C202.927 200.323 206.832 194.3 206.832 187.891V155.212L206.843 155.201Z" fill="url(#paint3_radial_58717_15832)" fill-opacity="0.2"/>
<path d="M233.105 182.755C237.238 182.755 240.588 179.389 240.588 175.235C240.588 171.082 237.238 167.715 233.105 167.715C228.972 167.715 225.622 171.082 225.622 175.235C225.622 179.389 228.972 182.755 233.105 182.755Z" fill="white"/>
<path d="M266.836 182.096C270.969 182.096 274.319 178.729 274.319 174.576C274.319 170.423 270.969 167.056 266.836 167.056C262.704 167.056 259.354 170.423 259.354 174.576C259.354 178.729 262.704 182.096 266.836 182.096Z" fill="white"/>
<path d="M384.673 227V128.55H426.299C433.083 128.55 438.898 129.695 443.743 131.985C448.588 134.276 452.289 137.58 454.843 141.897C457.398 146.125 458.676 151.279 458.676 157.358C458.676 161.675 457.486 165.815 455.108 169.78C452.729 173.656 448.809 176.916 443.347 179.559V169.516C448.544 171.542 452.553 173.965 455.372 176.784C458.191 179.603 460.129 182.686 461.187 186.034C462.244 189.294 462.772 192.73 462.772 196.342C462.772 206.032 459.557 213.565 453.125 218.939C446.694 224.313 437.752 227 426.299 227H384.673ZM405.156 209.16H428.678C432.819 209.16 436.122 207.971 438.589 205.592C441.056 203.213 442.289 200.13 442.289 196.342C442.289 192.465 441.056 189.338 438.589 186.959C436.122 184.58 432.819 183.391 428.678 183.391H405.156V209.16ZM405.156 165.551H427.753C430.925 165.551 433.435 164.67 435.285 162.908C437.224 161.058 438.193 158.635 438.193 155.64C438.193 152.645 437.224 150.266 435.285 148.504C433.435 146.654 430.925 145.729 427.753 145.729H405.156V165.551ZM525.203 228.586C517.803 228.586 510.931 227.308 504.588 224.753C498.245 222.199 492.695 218.631 487.937 214.049C483.268 209.38 479.612 203.962 476.969 197.795C474.326 191.628 473.005 184.933 473.005 177.709C473.005 170.485 474.282 163.789 476.837 157.622C479.48 151.455 483.136 146.081 487.805 141.5C492.562 136.919 498.113 133.351 504.456 130.796C510.799 128.241 517.715 126.964 525.203 126.964C532.691 126.964 539.607 128.241 545.95 130.796C552.293 133.351 557.8 136.919 562.469 141.5C567.226 146.081 570.882 151.455 573.437 157.622C576.08 163.789 577.402 170.485 577.402 177.709C577.402 184.933 576.08 191.628 573.437 197.795C570.794 203.962 567.094 209.38 562.337 214.049C557.667 218.631 552.161 222.199 545.818 224.753C539.475 227.308 532.603 228.586 525.203 228.586ZM525.203 210.085C529.696 210.085 533.837 209.292 537.625 207.706C541.501 206.121 544.893 203.918 547.8 201.099C550.708 198.192 552.954 194.756 554.54 190.791C556.126 186.827 556.919 182.466 556.919 177.709C556.919 172.951 556.126 168.635 554.54 164.758C552.954 160.794 550.708 157.358 547.8 154.451C544.893 151.543 541.501 149.341 537.625 147.843C533.837 146.257 529.696 145.465 525.203 145.465C520.71 145.465 516.525 146.257 512.649 147.843C508.861 149.341 505.513 151.543 502.606 154.451C499.698 157.358 497.452 160.794 495.866 164.758C494.28 168.635 493.487 172.951 493.487 177.709C493.487 182.466 494.28 186.827 495.866 190.791C497.452 194.756 499.698 198.192 502.606 201.099C505.513 203.918 508.861 206.121 512.649 207.706C516.525 209.292 520.71 210.085 525.203 210.085ZM641.22 228.586C633.82 228.586 626.948 227.308 620.605 224.753C614.262 222.199 608.711 218.631 603.954 214.049C599.285 209.38 595.629 203.962 592.986 197.795C590.343 191.628 589.021 184.933 589.021 177.709C589.021 170.485 590.299 163.789 592.854 157.622C595.497 151.455 599.153 146.081 603.822 141.5C608.579 136.919 614.13 133.351 620.473 130.796C626.816 128.241 633.732 126.964 641.22 126.964C648.708 126.964 655.624 128.241 661.967 130.796C668.31 133.351 673.816 136.919 678.486 141.5C683.243 146.081 686.899 151.455 689.454 157.622C692.097 163.789 693.418 170.485 693.418 177.709C693.418 184.933 692.097 191.628 689.454 197.795C686.811 203.962 683.111 209.38 678.354 214.049C673.684 218.631 668.178 222.199 661.835 224.753C655.492 227.308 648.62 228.586 641.22 228.586ZM641.22 210.085C645.713 210.085 649.854 209.292 653.642 207.706C657.518 206.121 660.91 203.918 663.817 201.099C666.725 198.192 668.971 194.756 670.557 190.791C672.143 186.827 672.935 182.466 672.935 177.709C672.935 172.951 672.143 168.635 670.557 164.758C668.971 160.794 666.725 157.358 663.817 154.451C660.91 151.543 657.518 149.341 653.642 147.843C649.854 146.257 645.713 145.465 641.22 145.465C636.727 145.465 632.542 146.257 628.666 147.843C624.878 149.341 621.53 151.543 618.623 154.451C615.715 157.358 613.469 160.794 611.883 164.758C610.297 168.635 609.504 172.951 609.504 177.709C609.504 182.466 610.297 186.827 611.883 190.791C613.469 194.756 615.715 198.192 618.623 201.099C621.53 203.918 624.878 206.121 628.666 207.706C632.542 209.292 636.727 210.085 641.22 210.085ZM707.945 227V128.55H728.428V177.841L722.746 175.859L762.126 128.55H787.763L748.779 175.594L749.969 161.058L788.556 227H764.637L740.586 185.373L728.428 200.042V227H707.945ZM798.668 227V128.55H819.151V227H798.668ZM854.317 227V146.39H829.341V128.55H899.38V146.39H874.8V227H854.317Z" fill="white"/>
<path d="M901.674 183L921.654 123.93H937.988L957.969 183H944.569L940.604 170.948H918.958L914.994 183H901.674ZM922.368 160.244H937.195L928.156 132.334H931.486L922.368 160.244ZM966.486 183V123.93H978.776V183H966.486Z" fill="#FFD233"/>
<defs>
<radialGradient id="paint0_radial_58717_15832" cx="0" cy="0" r="1" gradientTransform="matrix(49.1571 32.5892 -50.5354 31.7004 282.167 197.413)" gradientUnits="userSpaceOnUse">
<stop stop-color="#0098FF"/>
<stop offset="1" stop-color="white"/>
</radialGradient>
<radialGradient id="paint1_radial_58717_15832" cx="0" cy="0" r="1" gradientTransform="matrix(35.8342 46.8099 -72.5871 23.1087 246.333 214.596)" gradientUnits="userSpaceOnUse">
<stop offset="0.543269" stop-color="#CA26D3"/>
<stop offset="1" stop-color="white" stop-opacity="0"/>
</radialGradient>
<radialGradient id="paint2_radial_58717_15832" cx="0" cy="0" r="1" gradientTransform="matrix(49.1274 37.5828 -50.5048 36.5578 218.347 160.033)" gradientUnits="userSpaceOnUse">
<stop stop-color="#0098FF"/>
<stop offset="1" stop-color="white"/>
</radialGradient>
<radialGradient id="paint3_radial_58717_15832" cx="0" cy="0" r="1" gradientTransform="matrix(35.8125 53.9825 -72.5433 26.6496 182.534 179.849)" gradientUnits="userSpaceOnUse">
<stop offset="0.543269" stop-color="#CA26D3"/>
<stop offset="1" stop-color="white" stop-opacity="0"/>
</radialGradient>
</defs>
</svg>
