<svg width="64" height="64" viewBox="0 0 600 624" xmlns="http://www.w3.org/2000/svg">
  <rect width="600" height="624" rx="120" fill="#111111"/>
  <g transform="translate(15, 0)">
    <path d="M545.02 157.337L407.93 42.7266C395.46 32.3066 379.73 26.5966 363.48 26.5966H0V95.8966C0 125.037 17.98 149.967 43.45 160.207C51.43 163.417 60.16 165.197 69.3 165.197H284.93C365.75 165.197 431.27 230.717 431.27 311.537L431.3 319.267V457.877H284.93C224.81 457.877 173.14 421.617 150.65 369.777C149.04 366.097 147.59 362.327 146.3 358.497C146.3 358.497 146.29 358.487 146.29 358.467C134.89 335.257 111.02 319.277 83.41 319.277L0.12 319.267H0.01V411.447C0.01 431.977 9.11 451.447 24.86 464.617L163.3 580.357C175.77 590.777 191.5 596.487 207.75 596.487H569.86V319.277H569.75C569.82 316.707 569.86 314.127 569.86 311.547V210.517C569.86 189.987 560.76 170.517 545.01 157.347L545.02 157.337Z" fill="#F3EEE5"/>
  </g>
</svg>
